<svg width="151" height="26" viewBox="0 0 151 26" fill="none" xmlns="http://www.w3.org/2000/svg">
<path d="M5.68206 20.3454L0 0.277185H4.50173L7.85057 14.3028H8.01527L11.6661 0.277185H15.5364L19.1872 14.3305H19.3519L22.7008 0.277185H27.2025L21.5205 20.3454H17.4854L13.6973 7.09595H13.5326L9.71714 20.3454H5.68206Z" fill="#2C2D2F"/>
<path d="M34.3668 20.6503C29.8102 20.6503 27.0104 17.6567 27.0104 12.8891C27.0104 8.23241 29.8377 5.10021 34.2021 5.10021C38.1274 5.10021 41.2018 7.59488 41.2018 12.7228V13.887H31.018C31.018 16.1599 32.363 17.5736 34.4492 17.5736C35.8217 17.5736 36.8099 16.9638 37.2216 16.049H41.092C40.5155 18.8209 38.0451 20.6503 34.3668 20.6503ZM31.018 11.3092H37.3588C37.3588 9.47974 36.0962 8.17697 34.2845 8.17697C32.4179 8.17697 31.0866 9.57676 31.018 11.3092Z" fill="#2C2D2F"/>
<path d="M57.1225 7.26226C56.7931 5.04478 55.0913 3.68657 52.7855 3.68657C49.6837 3.68657 47.6524 6.09808 47.6524 10.3113C47.6524 14.6354 49.7111 16.936 52.758 16.936C55.0364 16.936 56.7108 15.661 57.1225 13.4989L61.2949 13.5267C60.8282 17.2409 57.7539 20.6226 52.7031 20.6226C47.3779 20.6226 43.4526 16.8529 43.4526 10.3113C43.4526 3.76972 47.4603 0 52.7031 0C57.2872 0 60.7459 2.66098 61.2949 7.26226H57.1225Z" fill="#2C2D2F"/>
<path d="M63.381 16.1322C63.381 12.7783 66.0711 11.6695 68.9258 11.5032C69.9964 11.4339 72.0002 11.3369 72.6315 11.3092V10.0896C72.6041 8.84222 71.7531 8.09382 70.2434 8.09382C68.8709 8.09382 67.9925 8.73134 67.7729 9.75693H63.9026C64.1496 7.15139 66.4005 5.10021 70.3532 5.10021C73.5923 5.10021 76.6666 6.5693 76.6666 10.2004V20.3454H72.8237V18.2665H72.7139C71.9727 19.6525 70.5728 20.6226 68.3494 20.6226C65.4946 20.6226 63.381 19.1258 63.381 16.1322ZM67.2789 16.0213C67.2789 17.1855 68.2121 17.7953 69.5023 17.7953C71.3414 17.7953 72.659 16.548 72.6315 14.968V13.8593C72.0139 13.887 70.2846 13.984 69.5846 14.0533C68.1847 14.1919 67.2789 14.8571 67.2789 16.0213Z" fill="#2C2D2F"/>
<path d="M79.7684 20.3454V5.29424H83.6388V7.92751H83.8035C84.4348 6.18124 85.9445 5.10021 87.9484 5.10021C90.0071 5.10021 91.5168 6.18124 92.0109 7.92751H92.1482C92.7795 6.20896 94.4539 5.10021 96.6499 5.10021C99.4223 5.10021 101.344 6.95736 101.344 10.2281V20.3454H97.2812V11.032C97.2812 9.31343 96.293 8.48188 94.948 8.48188C93.4108 8.48188 92.5324 9.5629 92.5324 11.1429V20.3454H88.5797V10.9211C88.5797 9.42431 87.6464 8.48188 86.2739 8.48188C84.9015 8.48188 83.8309 9.59062 83.8309 11.3092V20.3454H79.7684Z" fill="#2C2D2F"/>
<path d="M104.473 26V5.29424H108.481V7.81663H108.645C109.194 6.59701 110.402 5.10021 112.9 5.10021C116.194 5.10021 118.939 7.67804 118.939 12.8337C118.939 17.8507 116.304 20.5949 112.9 20.5949C110.457 20.5949 109.222 19.1812 108.645 17.9339H108.536V26H104.473ZM108.453 12.806C108.453 15.5224 109.606 17.3241 111.61 17.3241C113.696 17.3241 114.794 15.467 114.794 12.806C114.794 10.1727 113.696 8.371 111.61 8.371C109.579 8.371 108.453 10.0896 108.453 12.806Z" fill="#2C2D2F"/>
<path d="M131.127 13.9424V5.29424H135.189V20.3454H131.291V17.629H131.127C130.44 19.3753 128.848 20.5394 126.597 20.5394C123.605 20.5394 121.574 18.4051 121.574 14.8849V5.29424H125.637V14.1642C125.637 15.9382 126.652 17.0746 128.244 17.0746C129.727 17.0746 131.127 15.9936 131.127 13.9424Z" fill="#2C2D2F"/>
<path d="M146.855 9.75693C146.69 8.70362 145.757 8.01066 144.412 8.01066C143.095 8.01066 142.079 8.64819 142.106 9.5629C142.079 10.2281 142.628 10.7548 144.028 11.0597L146.69 11.6141C149.573 12.2239 150.973 13.5267 151 15.6887C150.973 18.6546 148.337 20.6503 144.385 20.6503C140.35 20.6503 137.989 18.8209 137.66 15.8827H141.749C141.942 17.0746 142.902 17.6844 144.385 17.6844C145.867 17.6844 146.855 17.0746 146.855 16.1045C146.855 15.3284 146.224 14.8571 144.824 14.5522L142.353 14.0533C139.526 13.4989 138.044 12.0021 138.071 9.78465C138.044 6.90192 140.514 5.10021 144.357 5.10021C148.118 5.10021 150.451 6.90192 150.671 9.75693H146.855Z" fill="#2C2D2F"/>
</svg>
