<svg width="1469" height="241" viewBox="0 0 1469 241" fill="none" xmlns="http://www.w3.org/2000/svg">
<path d="M54.6832 188.586L0 2.5693H54.4264L80.6127 118.958H82.1531L112.704 2.5693H155.834L186.642 119.472H188.182L214.368 2.5693H268.795L214.111 188.586H167.13L135.039 82.2175H133.499L101.408 188.586H54.6832Z" fill="#E8EAED"/>
<path d="M336.057 191.156C291.643 191.156 264.43 164.178 264.43 119.215C264.43 76.0512 291.9 47.2751 335.031 47.2751C376.364 47.2751 403.834 73.9957 403.834 118.701V130.263H312.438V132.062C312.438 146.45 321.681 156.727 337.084 156.727C347.61 156.727 356.082 152.102 359.163 144.138H403.577C398.699 172.914 374.053 191.156 336.057 191.156ZM312.438 103.029H358.906C358.65 90.4392 348.894 81.7036 336.057 81.7036C323.093 81.7036 312.824 90.5677 312.438 103.029Z" fill="#E8EAED"/>
<path d="M546.575 71.6834C545.034 54.2122 533.225 42.6503 513.457 42.6503C487.784 42.6503 473.15 62.4339 473.15 95.5778C473.15 130.52 488.041 148.505 513.2 148.505C531.941 148.505 544.008 138.228 546.575 121.785L596.123 122.299C593.556 154.158 565.573 191.156 512.173 191.156C461.084 191.156 422.832 157.241 422.832 95.5778C422.832 33.6578 462.111 0 512.173 0C558.384 0 592.016 25.9499 596.123 71.6834H546.575Z" fill="#E8EAED"/>
<path d="M613.581 150.047C613.581 119.215 636.43 107.397 664.927 105.598L697.531 104.313V93.0085C697.531 85.3006 691.113 80.9328 681.614 80.9328C671.602 80.9328 665.183 85.3006 663.9 94.0362H618.972C620.769 68.6002 641.308 47.2751 682.384 47.2751C721.15 47.2751 746.053 66.2878 746.053 93.2655V188.586H700.612V169.06H699.585C691.37 184.219 677.506 190.899 659.022 190.899C632.322 190.899 613.581 177.795 613.581 150.047ZM659.279 147.221C659.279 155.442 665.697 159.81 674.682 159.81C686.748 159.81 698.045 152.102 697.788 138.999V131.548C692.91 131.676 680.074 132.19 673.655 132.833C664.927 133.86 659.279 139.77 659.279 147.221Z" fill="#E8EAED"/>
<path d="M770.699 188.586V49.0736H816.653V75.2804H818.193C823.841 58.0661 838.732 47.2751 857.986 47.2751C877.498 47.2751 892.901 58.323 895.982 75.2804H897.523C902.4 58.323 918.831 47.2751 939.626 47.2751C966.069 47.2751 984.553 65.774 984.553 94.5501V188.586H936.032V106.626C936.032 93.7793 928.843 86.3284 918.318 86.3284C907.278 86.3284 900.86 94.2932 900.86 106.626V188.586H854.392V106.369C854.392 94.0362 847.204 86.3284 836.678 86.3284C825.895 86.3284 819.22 94.2932 819.22 106.883V188.586H770.699Z" fill="#E8EAED"/>
<path d="M1009.97 241V49.0736H1057.98V73.2249H1059.26C1064.65 59.3507 1077.49 47.2751 1098.54 47.2751C1126.52 47.2751 1153.22 68.6002 1153.22 118.958C1153.22 167.004 1128.06 190.385 1098.03 190.385C1078 190.385 1064.91 179.594 1059.26 165.72H1058.49V241H1009.97ZM1057.46 118.701C1057.46 139.77 1065.94 153.13 1080.57 153.13C1094.95 153.13 1103.42 140.027 1103.42 118.701C1103.42 97.6333 1094.95 84.7868 1080.57 84.7868C1065.94 84.7868 1057.46 97.6333 1057.46 118.701Z" fill="#E8EAED"/>
<path d="M1264.9 127.694V49.0736H1313.42V188.586H1267.47V162.123H1265.93C1259.77 179.851 1243.85 190.385 1223.05 190.385C1194.04 190.385 1174.79 168.803 1174.79 137.971V49.0736H1223.31V127.951C1223.31 142.082 1230.76 150.818 1243.85 150.818C1256.43 150.818 1265.16 142.339 1264.9 127.694Z" fill="#E8EAED"/>
<path d="M1420.73 94.0362C1419.71 85.3006 1411.49 79.9051 1401.22 79.9051C1391.98 79.9051 1384.54 83.5021 1384.79 89.6684C1384.54 94.0362 1387.87 97.8902 1398.91 99.9456L1426.64 105.084C1455.14 110.223 1468.74 122.299 1469 142.853C1468.74 172.4 1440.76 191.156 1402.51 191.156C1360.4 191.156 1336.01 172.4 1333.19 144.138H1381.46C1383 153.13 1390.95 158.269 1402.76 158.269C1412.52 158.269 1419.45 154.672 1419.71 148.505C1419.45 142.853 1414.57 139.77 1403.28 137.714L1378.89 133.346C1350.65 128.208 1336.53 114.077 1336.53 92.4947C1336.53 63.7186 1360.92 47.2751 1400.2 47.2751C1439.73 47.2751 1464.12 64.7463 1465.41 94.0362H1420.73Z" fill="#E8EAED"/>
</svg>
