<svg width="36" height="36" viewBox="0 0 36 36" fill="none" xmlns="http://www.w3.org/2000/svg">
<path d="M17.9992 20.1002L10.6492 27.4502C10.3742 27.7252 10.0242 27.8627 9.59922 27.8627C9.17422 27.8627 8.82422 27.7252 8.54922 27.4502C8.27422 27.1752 8.13672 26.8252 8.13672 26.4002C8.13672 25.9752 8.27422 25.6252 8.54922 25.3502L15.8992 18.0002L8.54922 10.6502C8.27422 10.3752 8.13672 10.0252 8.13672 9.6002C8.13672 9.1752 8.27422 8.8252 8.54922 8.5502C8.82422 8.2752 9.17422 8.1377 9.59922 8.1377C10.0242 8.1377 10.3742 8.2752 10.6492 8.5502L17.9992 15.9002L25.3492 8.5502C25.6242 8.2752 25.9742 8.1377 26.3992 8.1377C26.8242 8.1377 27.1742 8.2752 27.4492 8.5502C27.7242 8.8252 27.8617 9.1752 27.8617 9.6002C27.8617 10.0252 27.7242 10.3752 27.4492 10.6502L20.0992 18.0002L27.4492 25.3502C27.7242 25.6252 27.8617 25.9752 27.8617 26.4002C27.8617 26.8252 27.7242 27.1752 27.4492 27.4502C27.1742 27.7252 26.8242 27.8627 26.3992 27.8627C25.9742 27.8627 25.6242 27.7252 25.3492 27.4502L17.9992 20.1002Z" fill="white"/>
</svg>
